<?xml version="1.0" encoding="UTF-8" standalone="no"?>
<!DOCTYPE svg PUBLIC "-//W3C//DTD SVG 1.1//EN" "http://www.w3.org/Graphics/SVG/1.1/DTD/svg11.dtd">
<svg width="100%" height="100%" viewBox="0 0 11280 1910" version="1.1" xmlns="http://www.w3.org/2000/svg" xmlns:xlink="http://www.w3.org/1999/xlink" xml:space="preserve" xmlns:serif="http://www.serif.com/" style="fill-rule:evenodd;clip-rule:evenodd;stroke-linejoin:round;stroke-miterlimit:2;">
    <g transform="matrix(6.06605,0,0,6.06605,-7967.59,-10412)">
        <g transform="matrix(5.92951,0,0,5.92951,-6757.74,-7880.16)">
            <text x="1373.52px" y="1662.97px" style="font-family:'CanelaTextTrial-Bold', 'Canela Text Trial';font-weight:700;font-size:50px;fill:white;">M</text>
            <g transform="matrix(41.3339,0,0,41.3339,1666.01,1662.97)">
            </g>
            <text x="1425.37px" y="1662.97px" style="font-family:'CanelaTextTrial-Bold', 'Canela Text Trial';font-weight:700;font-size:41.334px;fill:white;">U<tspan x="1457.69px 1489.89px 1524.28px 1539.94px 1572.14px 1601.61px 1631.5px " y="1662.97px 1662.97px 1662.97px 1662.97px 1662.97px 1662.97px 1662.97px ">NDINERO</tspan></text>
        </g>
        <g transform="matrix(0.354283,0,0,0.372576,694.523,1260.28)">
            <rect x="1912.8" y="1579.99" width="122.678" height="70.015" style="fill:white;"/>
        </g>
        <g transform="matrix(0.354283,0,0,0.372576,960.97,1260.28)">
            <rect x="1912.8" y="1579.99" width="122.678" height="70.015" style="fill:white;"/>
        </g>
        <g transform="matrix(0.352985,0,0,0.372576,697.007,1305.61)">
            <rect x="1912.8" y="1579.99" width="122.678" height="70.015" style="fill:white;"/>
        </g>
        <g transform="matrix(0.352985,0,0,0.372576,963.454,1305.61)">
            <rect x="1912.8" y="1579.99" width="122.678" height="70.015" style="fill:white;"/>
        </g>
    </g>
</svg>
